<?xml version="1.0" standalone="no"?>
<!DOCTYPE svg PUBLIC "-//W3C//DTD SVG 20010904//EN"
 "http://www.w3.org/TR/2001/REC-SVG-20010904/DTD/svg10.dtd">
<svg version="1.0" xmlns="http://www.w3.org/2000/svg"
 width="179.000000pt" height="55.000000pt" viewBox="0 0 179.000000 55.000000"
 preserveAspectRatio="xMidYMid meet">

<g transform="translate(0.000000,55.000000) scale(0.100000,-0.100000)"
fill="#000000" stroke="none">
<path d="M0 275 l0 -275 895 0 895 0 0 275 0 275 -895 0 -895 0 0 -275z m1023
85 c62 -70 17 -180 -75 -180 -50 0 -82 18 -103 60 -19 37 -19 54 1 96 34 71
124 83 177 24z m-793 15 c0 -8 -9 -15 -20 -15 -19 0 -20 -7 -20 -90 0 -73 -3
-90 -15 -90 -12 0 -15 17 -15 90 0 83 -1 90 -20 90 -11 0 -20 7 -20 15 0 12
13 15 55 15 42 0 55 -3 55 -15z m48 -93 c3 -97 2 -102 -18 -102 -19 0 -20 6
-20 98 0 54 3 102 7 106 20 19 28 -8 31 -102z m72 53 c15 -41 19 -47 25 -30
46 119 59 114 63 -23 3 -97 2 -102 -18 -102 -17 0 -20 7 -21 48 -1 44 -1 45
-11 19 -13 -35 -28 -31 -44 14 l-12 34 -1 -57 c-1 -45 -4 -58 -16 -58 -12 0
-15 18 -15 106 0 93 2 105 17 102 9 -2 23 -24 33 -53z m141 13 l0 -43 22 43
c11 23 27 42 34 42 17 0 16 -12 -4 -54 -15 -33 -15 -38 5 -91 26 -68 26 -65 7
-65 -8 0 -22 18 -31 40 -19 46 -34 44 -34 -6 0 -24 -5 -34 -15 -34 -12 0 -15
18 -15 105 0 87 3 105 15 105 11 0 15 -12 16 -42z m187 25 c2 -9 -7 -13 -27
-13 -28 0 -31 -3 -31 -30 0 -25 4 -30 25 -30 16 0 25 -6 25 -15 0 -9 -9 -15
-25 -15 -21 0 -25 -5 -25 -30 0 -27 3 -30 30 -30 20 0 30 -5 30 -15 0 -11 -12
-15 -45 -15 l-45 0 0 106 0 105 42 -3 c23 -2 43 -9 46 -15z m67 -44 l20 -54 3
58 c2 42 7 57 17 57 12 0 15 -20 15 -106 0 -92 -2 -105 -16 -102 -9 2 -25 23
-35 48 l-18 45 0 -47 c-1 -41 -4 -48 -21 -48 -19 0 -20 7 -20 98 0 54 3 102 7
106 14 14 29 -2 48 -55z m371 4 l8 -58 10 54 c13 66 32 77 42 24 11 -63 23
-74 24 -20 0 33 5 49 15 54 9 3 18 3 21 1 4 -5 -4 -72 -21 -175 -7 -40 -32
-44 -40 -5 -19 88 -21 90 -29 30 -6 -46 -11 -58 -25 -58 -14 0 -19 15 -29 89
-15 112 -15 121 2 121 10 0 17 -18 22 -57z m216 40 c24 -22 26 -153 2 -177
-18 -19 -55 -21 -72 -4 -19 19 -16 163 4 182 20 21 43 20 66 -1z m119 -4 c16
-16 19 -28 14 -52 -10 -46 -10 -78 0 -110 6 -25 5 -28 -11 -25 -11 2 -21 17
-27 38 -14 56 -27 59 -27 7 0 -34 -4 -47 -14 -47 -11 0 -15 18 -18 73 -2 39
-2 87 0 105 3 28 7 32 33 32 16 0 38 -9 50 -21z m69 -69 l0 -90 30 0 c20 0 30
-5 30 -15 0 -11 -12 -15 -45 -15 l-45 0 0 105 c0 87 3 105 15 105 12 0 15 -17
15 -90z m152 73 c14 -13 18 -31 18 -93 0 -87 -8 -100 -62 -100 l-38 0 0 98 c0
54 3 102 7 105 12 13 56 7 75 -10z"/>
<path d="M886 344 c-31 -32 -34 -71 -6 -107 26 -33 63 -41 101 -22 53 28 60
85 16 133 -29 31 -77 29 -111 -4z m94 -20 c0 -8 -5 -12 -11 -8 -8 4 -10 -8 -8
-40 4 -41 2 -46 -17 -46 -19 0 -21 5 -18 53 2 28 1 46 -2 40 -8 -18 -24 -16
-24 2 0 11 11 15 40 15 30 0 40 -4 40 -16z"/>
<path d="M1282 283 c2 -52 6 -68 18 -68 12 0 15 14 15 65 0 54 -3 65 -18 68
-16 3 -18 -3 -15 -65z"/>
<path d="M1400 324 c0 -24 4 -34 13 -32 19 7 21 54 3 61 -13 5 -16 -1 -16 -29z"/>
<path d="M1630 284 c0 -56 3 -75 13 -72 7 3 13 29 15 70 2 52 0 67 -13 71 -13
5 -15 -5 -15 -69z"/>
</g>
</svg>
